# xmcd
#
# Track frame offsets: 
#        150
#        18375
#        34970
#        53917
#        68977
#        88197
#        105310
#        120692
#        141847
#        161815
#
# Disc length: 2417 seconds
#
# Revision: 3
# Processed by: cddbd v1.5.2PL0 Copyright (c) Steve Scherf et al.
# Submitted via: ExactAudioCopy v1.0b3
#
DISCID=89096f0a
DTITLE=Ray Charles - Would You Believe
DYEAR=1990
DGENRE=R&B
TTITLE0=I'll Take Care Of You
TTITLE1=Your Love Keeps Me Satisfied 
TTITLE2=Ellie, My Love 
TTITLE3=I Can't Get Enough
TTITLE4=Lets Get Back To Where We Left Off (with Peggy Scott)
TTITLE5=Child Support, Alimony
TTITLE6=Fresh Out Of Tears
TTITLE7=Living Without You
TTITLE8=Where're The Stairs?
TTITLE9=Leave Him!
EXTD=
EXTT0=
EXTT1=
EXTT2=
EXTT3=
EXTT4=
EXTT5=
EXTT6=
EXTT7=
EXTT8=
EXTT9=
PLAYORDER=
